<svg width="20.000000" height="20.000000" viewBox="0 0 20 20" fill="none" xmlns="http://www.w3.org/2000/svg" xmlns:xlink="http://www.w3.org/1999/xlink">
	<desc>
			Created with Pixso.
	</desc>
	<defs>
		<clipPath id="clip9_2079">
			<rect id="fi-rr-home-location-alt" width="20.000000" height="20.000000" fill="white" fill-opacity="0"/>
		</clipPath>
	</defs>
	<rect id="fi-rr-home-location-alt" width="20.000000" height="20.000000" fill="#FFFFFF" fill-opacity="0"/>
	<rect id="fi-rr-home-location-alt" width="20.000000" height="20.000000" fill="#FFFFFF" fill-opacity="0"/>
	<g clip-path="url(#clip9_2079)">
		<path id="Vector" d="M20 8.10315L20 15.8331C19.998 16.9377 19.5586 17.9968 18.7773 18.778C17.9961 19.5591 16.9375 19.9985 15.834 19.9998L15 19.9998C14.7793 19.9998 14.5664 19.912 14.4102 19.7557C14.2539 19.5995 14.166 19.3875 14.166 19.1665C14.166 18.9454 14.2539 18.7335 14.4102 18.5773C14.5664 18.4209 14.7793 18.3331 15 18.3331L15.834 18.3331C16.4961 18.3331 17.1328 18.0697 17.6016 17.601C18.0703 17.1321 18.334 16.4962 18.334 15.8331L18.334 8.10315C18.334 7.69385 18.2324 7.29089 18.041 6.92957C17.8496 6.56824 17.5703 6.25952 17.2324 6.03064L11.3984 2.09485C10.9863 1.81384 10.498 1.66357 10 1.66357C9.50195 1.66357 9.01367 1.81384 8.60156 2.09485L2.76758 6.03064C2.42969 6.25952 2.15039 6.56824 1.95898 6.92957C1.76758 7.29089 1.66602 7.69385 1.66602 8.10315L1.66602 15.8331C1.66602 16.4962 1.92969 17.1321 2.39844 17.601C2.86719 18.0697 3.50391 18.3331 4.16602 18.3331L5 18.3331C5.2207 18.3331 5.43359 18.4209 5.58984 18.5773C5.74609 18.7335 5.83398 18.9454 5.83398 19.1665C5.83398 19.3875 5.74609 19.5995 5.58984 19.7557C5.43359 19.912 5.2207 19.9998 5 19.9998L4.16602 19.9998C3.0625 19.9985 2.00391 19.5591 1.22266 18.778C0.441406 17.9968 0.00195312 16.9377 0 15.8331L0 8.10315C0 7.42126 0.166016 6.74963 0.486328 6.14722C0.804688 5.54492 1.26758 5.0304 1.83398 4.64893L7.66602 0.71228C8.35352 0.245605 9.16602 -0.00390625 9.99805 -0.00390625C10.8281 -0.00390625 11.6406 0.245605 12.3281 0.71228L18.1621 4.64893C18.7266 5.03027 19.1914 5.54456 19.5117 6.14685C19.832 6.74915 20 7.4209 20 8.10315ZM15.834 12.5056C15.8359 13.2719 15.6855 14.031 15.3926 14.7389C15.0996 15.4468 14.668 16.0895 14.125 16.6298L11.1953 19.4948C10.875 19.8053 10.4473 19.9789 10 19.9789C9.55273 19.9789 9.125 19.8053 8.80469 19.4948L5.88086 16.6365C5.20117 15.959 4.69922 15.1241 4.41992 14.2062C4.14062 13.2882 4.0918 12.3153 4.27734 11.3738C4.46289 10.4324 4.87891 9.55139 5.48633 8.80896C6.0957 8.06641 6.87695 7.48547 7.76367 7.11755C8.65039 6.74963 9.61328 6.60608 10.5684 6.69971C11.5234 6.79321 12.4414 7.12097 13.2383 7.65393C14.0371 8.18677 14.6914 8.90845 15.1445 9.75476C15.5977 10.6011 15.834 11.5459 15.834 12.5056ZM14.166 12.5056C14.166 11.8204 13.998 11.1459 13.6738 10.5415C13.3516 9.93726 12.8848 9.42188 12.3145 9.04126C11.7461 8.66052 11.0898 8.42615 10.4082 8.35901C9.72656 8.29175 9.03906 8.3938 8.40625 8.65601C7.77344 8.91809 7.21484 9.3324 6.7793 9.86194C6.34375 10.3916 6.04688 11.0203 5.91406 11.6923C5.7793 12.3643 5.81445 13.059 6.01172 13.7146C6.21094 14.3704 6.56836 14.9669 7.05273 15.4514L9.9707 18.3031L12.9531 15.4448C13.3398 15.0593 13.6465 14.6011 13.8535 14.0967C14.0625 13.5922 14.168 13.0514 14.166 12.5056ZM12.5 12.4998C12.5 12.9943 12.3535 13.4777 12.0781 13.8887C11.8047 14.2998 11.4141 14.6202 10.957 14.8094C10.5 14.9988 9.99805 15.0482 9.51172 14.9518C9.02734 14.8553 8.58203 14.6172 8.23242 14.2676C7.88281 13.918 7.64453 13.4725 7.54883 12.9875C7.45117 12.5026 7.50195 11.9999 7.68945 11.5431C7.87891 11.0863 8.19922 10.6958 8.61133 10.4211C9.02148 10.1465 9.50586 9.99976 10 9.99976C10.6621 9.99976 11.2988 10.2632 11.7676 10.7321C12.2363 11.2009 12.5 11.8368 12.5 12.4998Z" fill="#FFFFFF" fill-opacity="1.000000" fill-rule="nonzero"/>
	</g>
</svg>
