<svg width="20.000000" height="20.000000" viewBox="0 0 20 20" fill="none" xmlns="http://www.w3.org/2000/svg" xmlns:xlink="http://www.w3.org/1999/xlink">
	<desc>
			Created with Pixso.
	</desc>
	<defs>
		<clipPath id="clip9_2105">
			<rect id="fi-rr-user-time" width="20.000000" height="20.000000" fill="white" fill-opacity="0"/>
		</clipPath>
	</defs>
	<rect id="fi-rr-user-time" width="20.000000" height="20.000000" fill="#FFFFFF" fill-opacity="0"/>
	<rect id="fi-rr-user-time" width="20.000000" height="20.000000" fill="#FFFFFF" fill-opacity="0"/>
	<g clip-path="url(#clip9_2105)">
		<path id="Vector" d="M14.166 20C13.0137 20 11.8848 19.6578 10.9258 19.0168C9.9668 18.376 9.21875 17.4648 8.77734 16.3989C8.33594 15.3331 8.2207 14.1602 8.44531 13.0287C8.66992 11.8971 9.22656 10.8577 10.043 10.0419C10.8574 9.22607 11.8965 8.67053 13.0293 8.44543C14.1602 8.22034 15.334 8.33582 16.3984 8.77734C17.4648 9.21887 18.377 9.96655 19.0176 10.9258C19.6582 11.8851 20 13.0129 20 14.1666C19.998 15.7133 19.3828 17.1959 18.2891 18.2896C17.1953 19.3831 15.7129 19.9983 14.166 20ZM14.166 10C13.3418 10 12.5371 10.2444 11.8516 10.7023C11.166 11.16 10.6328 11.8108 10.3164 12.5721C10.002 13.3335 9.91992 14.1713 10.0801 14.9795C10.2402 15.7878 10.6387 16.5303 11.2207 17.1129C11.8027 17.6957 12.5449 18.0925 13.3535 18.2533C14.1621 18.4141 15 18.3315 15.7617 18.0161C16.5234 17.7008 17.1738 17.1667 17.6309 16.4816C18.0898 15.7964 18.334 14.9907 18.334 14.1666C18.332 13.062 17.8926 12.0029 17.1113 11.2218C16.3301 10.4408 15.2715 10.0013 14.166 10ZM15.5898 15.5891C15.7461 15.4329 15.834 15.2209 15.834 15C15.834 14.7791 15.7461 14.5671 15.5898 14.4109L15 13.8217L15 12.5C15 12.2789 14.9121 12.067 14.7559 11.9108C14.5996 11.7545 14.3887 11.6666 14.166 11.6666C13.9453 11.6666 13.7344 11.7545 13.5781 11.9108C13.4219 12.067 13.334 12.2789 13.334 12.5L13.334 14.1666C13.334 14.3877 13.4219 14.5996 13.5781 14.7559L14.4102 15.5891C14.5664 15.7454 14.7793 15.8331 15 15.8331C15.2207 15.8331 15.4336 15.7454 15.5898 15.5891ZM1.66602 19.1666C1.66797 17.6355 2.17969 16.1483 3.11719 14.9382C4.05469 13.7281 5.36914 12.8635 6.85156 12.48C6.95703 12.4558 7.05859 12.4109 7.14844 12.3477C7.23828 12.2844 7.31445 12.2042 7.37305 12.1116C7.42969 12.0189 7.4707 11.9156 7.48828 11.8077C7.50781 11.6998 7.50391 11.5894 7.48047 11.4825C7.45508 11.3757 7.41016 11.2747 7.34766 11.1853C7.28516 11.0958 7.20508 11.0198 7.11133 10.9613C7.01953 10.903 6.91602 10.8633 6.80859 10.8447C6.69922 10.8263 6.58984 10.8291 6.48242 10.8534C4.625 11.3091 2.97461 12.3772 1.79883 13.8855C0.623047 15.3937 -0.00976562 17.2542 0 19.1666C0 19.3877 0.0878906 19.5996 0.244141 19.756C0.400391 19.9122 0.613281 20 0.833984 20C1.05469 20 1.26562 19.9122 1.42188 19.756C1.57812 19.5996 1.66602 19.3877 1.66602 19.1666ZM7.0625 9.16663C6.15625 9.16663 5.26953 8.89783 4.51562 8.39429C3.76172 7.89062 3.17383 7.1748 2.82812 6.33728C2.48047 5.49976 2.39062 4.57825 2.56641 3.68921C2.74414 2.80005 3.17969 1.9834 3.82031 1.34241C4.46094 0.701416 5.2793 0.264893 6.16797 0.0880127C7.05664 -0.0887451 7.97852 0.00195312 8.81641 0.348877C9.65234 0.695801 10.3691 1.2832 10.873 2.03699C11.377 2.79065 11.6445 3.67688 11.6445 4.58337C11.6445 5.79846 11.1602 6.9635 10.3008 7.82275C9.44141 8.68201 8.27734 9.16541 7.0625 9.16663ZM7.0625 1.66663C6.48438 1.66663 5.92188 1.83777 5.44141 2.1582C4.96094 2.47876 4.58789 2.9342 4.36719 3.46716C4.14648 4.00012 4.08789 4.58655 4.20117 5.15234C4.31445 5.71814 4.5918 6.23779 5 6.64575C5.4082 7.05359 5.92773 7.33142 6.49219 7.44397C7.05859 7.55652 7.64453 7.49878 8.17773 7.27795C8.71094 7.05725 9.16602 6.68335 9.48633 6.20374C9.80664 5.72412 9.97852 5.16016 9.97852 4.58337C9.97852 3.80981 9.67188 3.06787 9.125 2.521C8.57812 1.974 7.83594 1.66663 7.0625 1.66663Z" fill="#FFFFFF" fill-opacity="1.000000" fill-rule="nonzero"/>
	</g>
</svg>
