<svg width="20.000000" height="20.000000" viewBox="0 0 20 20" fill="none" xmlns="http://www.w3.org/2000/svg" xmlns:xlink="http://www.w3.org/1999/xlink">
	<desc>
			Created with Pixso.
	</desc>
	<defs>
		<clipPath id="clip9_2140">
			<rect id="fi-rr-magic-wand" width="20.000000" height="20.000000" fill="white" fill-opacity="0"/>
		</clipPath>
	</defs>
	<rect id="fi-rr-magic-wand" width="20.000000" height="20.000000" fill="#FFFFFF" fill-opacity="0"/>
	<rect id="fi-rr-magic-wand" width="20.000000" height="20.000000" fill="#FFFFFF" fill-opacity="0"/>
	<g clip-path="url(#clip9_2140)">
		<path id="Vector" d="M15 7.5531C15 7.2179 14.9336 6.88599 14.8066 6.57654C14.6777 6.26697 14.4883 5.98608 14.25 5.74976C13.7637 5.28552 13.1172 5.02649 12.4453 5.02649C11.7715 5.02649 11.125 5.28552 10.6387 5.74976L0.75 15.6406C0.298828 16.1245 0.0527344 16.7648 0.0644531 17.4264C0.0761719 18.088 0.34375 18.7194 0.8125 19.1874C1.2793 19.6553 1.91211 19.9233 2.57227 19.9351C3.23438 19.9467 3.875 19.701 4.35938 19.2498L14.25 9.35901C14.4883 9.12244 14.6777 8.84106 14.8066 8.53113C14.9355 8.22119 15.002 7.88879 15 7.5531ZM3.17969 18.0731C3.01172 18.2338 2.78906 18.3232 2.55469 18.3232C2.32227 18.3232 2.09961 18.2338 1.92969 18.0731C1.76562 17.9072 1.67188 17.6825 1.67188 17.4481C1.67188 17.2137 1.76562 16.989 1.92969 16.8231L8.4043 10.3481L9.6582 11.6023L3.17969 18.0731ZM13.0742 8.17981L10.834 10.4207L9.58398 9.1665L11.8242 6.92651C11.9043 6.83521 12.002 6.76135 12.1113 6.70935C12.2207 6.65747 12.3398 6.62866 12.4609 6.62463C12.582 6.62061 12.7031 6.64148 12.8164 6.68604C12.9297 6.73059 13.0312 6.79785 13.1172 6.88354C13.2031 6.96936 13.2715 7.07178 13.3145 7.18457C13.3594 7.29736 13.3809 7.41809 13.377 7.53931C13.373 7.66052 13.3438 7.77966 13.291 7.88916C13.2402 7.99878 13.166 8.09656 13.0742 8.17651L13.0742 8.17981ZM4.05273 2.37891L5.34375 2.01062L5.71289 0.718994C5.77148 0.511719 5.89844 0.329346 6.07031 0.199585C6.24219 0.0698242 6.45117 -0.000366211 6.66797 -0.000366211C6.88281 -0.000366211 7.0918 0.0698242 7.26367 0.199585C7.4375 0.329346 7.5625 0.511719 7.62109 0.718994L7.99023 2.01062L9.28125 2.37891C9.48828 2.43835 9.66992 2.56348 9.80078 2.73572C9.92969 2.90784 10 3.11755 10 3.33313C10 3.54871 9.92969 3.75842 9.80078 3.93054C9.66992 4.10278 9.48828 4.22791 9.28125 4.28735L7.99023 4.65564L7.62109 5.94727C7.5625 6.15454 7.4375 6.33691 7.26367 6.46667C7.0918 6.59644 6.88281 6.66663 6.66797 6.66663C6.45117 6.66663 6.24219 6.59644 6.07031 6.46667C5.89844 6.33691 5.77148 6.15454 5.71289 5.94727L5.34375 4.65564L4.05273 4.28735C3.8457 4.22791 3.66406 4.10278 3.5332 3.93054C3.4043 3.75842 3.33398 3.54871 3.33398 3.33313C3.33398 3.11755 3.4043 2.90784 3.5332 2.73572C3.66406 2.56348 3.8457 2.43835 4.05273 2.37891ZM19.2812 14.2874L17.9902 14.6556L17.6211 15.9473C17.5625 16.1545 17.4375 16.3369 17.2637 16.4667C17.0918 16.5964 16.8828 16.6666 16.668 16.6666C16.4512 16.6666 16.2422 16.5964 16.0703 16.4667C15.8984 16.3369 15.7715 16.1545 15.7129 15.9473L15.3438 14.6556L14.0527 14.2874C13.8457 14.2279 13.6641 14.1028 13.5332 13.9305C13.4043 13.7584 13.334 13.5487 13.334 13.3331C13.334 13.1176 13.4043 12.9078 13.5332 12.7357C13.6641 12.5635 13.8457 12.4384 14.0527 12.3789L15.3438 12.0106L15.7129 10.719C15.7715 10.5117 15.8984 10.3293 16.0703 10.1996C16.2422 10.0698 16.4512 9.99963 16.668 9.99963C16.8828 9.99963 17.0918 10.0698 17.2637 10.1996C17.4375 10.3293 17.5625 10.5117 17.6211 10.719L17.9902 12.0106L19.2812 12.3789C19.4883 12.4384 19.6699 12.5635 19.8008 12.7357C19.9297 12.9078 20 13.1176 20 13.3331C20 13.5487 19.9297 13.7584 19.8008 13.9305C19.6699 14.1028 19.4883 14.2279 19.2812 14.2874ZM14.7969 2.08313L15.9258 1.76062L16.25 0.628906C16.3027 0.448853 16.4121 0.290649 16.5625 0.178101C16.7129 0.0655518 16.8965 0.00463867 17.084 0.00463867C17.2715 0.00463867 17.4551 0.0655518 17.6035 0.178101C17.7539 0.290649 17.8652 0.448853 17.918 0.628906L18.2402 1.75891L19.3691 2.08142C19.5488 2.13428 19.707 2.2439 19.8203 2.39417C19.9336 2.54443 19.9941 2.72705 19.9941 2.91479C19.9941 3.10254 19.9336 3.28516 19.8203 3.43542C19.707 3.58569 19.5488 3.69531 19.3691 3.74817L18.2402 4.07068L17.918 5.20312C17.8652 5.3833 17.7539 5.5415 17.6035 5.65405C17.4551 5.7666 17.2715 5.82739 17.084 5.82739C16.8965 5.82739 16.7129 5.7666 16.5625 5.65405C16.4121 5.5415 16.3027 5.3833 16.25 5.20312L15.9277 4.07397L14.7969 3.74976C14.6152 3.69702 14.457 3.58728 14.3457 3.43713C14.2324 3.28687 14.1719 3.10413 14.1719 2.9165C14.1719 2.72876 14.2324 2.54602 14.3457 2.39587C14.457 2.24561 14.6152 2.13586 14.7969 2.08313Z" fill="#FFFFFF" fill-opacity="1.000000" fill-rule="nonzero"/>
	</g>
</svg>
